<svg id="Layer_1" data-name="Layer 1" xmlns="http://www.w3.org/2000/svg" viewBox="0 0 1221.95 294.21"><defs><style>.cls-1{fill:#3cc6b9;}</style></defs><g id="ikpsos"><path class="cls-1" d="M699.78,197.6c-2.07,3.86-3.71,7.19-5.6,10.36a106.34,106.34,0,0,1-6.65,10.21c-3.72,4.86-9,7.3-14.95,8.16a32.12,32.12,0,0,1-22.48-4.56c-5-3.15-6.6-8.3-8.12-13.51a13.34,13.34,0,0,0-.35-2,14.63,14.63,0,0,0-1.47-2.09,13.17,13.17,0,0,0-1.52,1.66c-3,4.77-5.86,9.62-8.92,14.35-3.36,5.18-8.56,7.19-14.42,7.68-9.26.77-18.27-.21-26.81-4.2a14.31,14.31,0,0,1-8-9.59c-.71-2.54-1.06-5.19-1.61-7.79a14.74,14.74,0,0,0-.71-1.86c-2.46,4.13-4.46,8.15-7.1,11.69a46.78,46.78,0,0,1-8.78,9.31c-2.07,1.58-5.25,2.06-8,2.35-9.51,1-18.78-.07-27.52-4.23a14.38,14.38,0,0,1-7.79-9.5c-.72-2.53-1.31-5.09-2.12-8.24-2.06,3.47-3.73,6.47-5.59,9.34-2.57,3.95-4.9,8.25-9.37,10.4a24,24,0,0,1-7.6,2.19c-9.69,1.07-19.17.11-28-4.3-5-2.49-7.47-7.1-8.83-12.35a10.86,10.86,0,0,0-.36-2,10.46,10.46,0,0,0-1.42-1.81,8.37,8.37,0,0,0-1.48,1.43c-2.12,3.27-4.13,6.61-6.25,9.89-3.82,5.89-9.42,8.67-16.3,9.18-8.95.66-17.66-.37-25.76-4.39a16.2,16.2,0,0,1-8.3-10.73c-2.66-9.84-2.08-19.78-.54-29.7,1.07-6.89,2.15-13.78,3.52-20.62,1-5.19,2.56-10.3,3.81-15.45a33.51,33.51,0,0,0,.5-3.48l-.81-.34c-2.18,2.84-4.56,5.54-6.5,8.53-7.49,11.54-15.23,22.95-22.12,34.85a131.86,131.86,0,0,0-12.84,30.11,44.14,44.14,0,0,1-2.6,7.51,5.18,5.18,0,0,1-3.31,2.46c-8.4,1.41-18.86-6.8-19.42-14.89a49.44,49.44,0,0,0-.8-5.68,13.88,13.88,0,0,0-1-2.48c-3,5-5.81,9.53-8.53,14.15A19.74,19.74,0,0,1,310.1,228c-8.84.49-17.42-.38-25.59-4.14A15,15,0,0,1,276,214.3c-1.31-4.41-1.86-9.05-2.76-13.58-.17-.84-.42-1.66-.81-3.18-2.09,3.9-3.72,7.2-5.61,10.36a104.42,104.42,0,0,1-6.63,10.22c-3.71,4.87-9,7.33-14.93,8.2a31.91,31.91,0,0,1-22.69-4.66c-5-3.19-6.54-8.36-8-13.58-2.35-8.4-2.22-17-1.41-25.53.69-7.24,2.41-14.39,4-21.51a93.59,93.59,0,0,1,9.37-24c4.21-7.82,9.31-15,16.65-20.19,8.11-5.78,17.16-6.48,26.68-4.64a52.6,52.6,0,0,1,18.76,7.69c1.09.7,2,.66,2.53-.8a19.64,19.64,0,0,0,1.09-2.51c.72-3.63,3.37-4.84,6.55-5a55.28,55.28,0,0,1,24.07,4.55c3.43,1.44,4,3.31,2.63,6.84-3.43,8.71-7.08,17.34-10.22,26.15-3,8.43-5.69,17-8.08,25.6-2.09,7.5-3.8,15.13-5.25,22.78-.87,4.62-1.43,9.43.54,14,1.5,3.48,4.09,4.29,7.52,2.56,4.9-2.47,8-6.75,10.82-11.13,6.71-10.33,11.64-21.59,16.21-33,1.62-4,2.22-8.44,3.33-12.67,2.36-9,4.72-17.95,7.16-26.9,1.05-3.84,2.13-7.68,3.55-11.39a5.88,5.88,0,0,1,3.14-3.31,25.36,25.36,0,0,1,8.07-1.12c6.92.19,13.78,1,20.1,4.14,2.87,1.43,3.13,2.68,2,5.6-4.32,10.94-8.67,21.87-12.75,32.9-2,5.51-3.55,11.21-5.22,16.85a18.27,18.27,0,0,0-.38,3.25l.74.22c1.62-2.71,3.11-5.51,4.9-8.11,8.13-11.82,16.11-23.76,24.64-35.29,5.38-7.25,11.74-13.78,17.48-20.78,2.17-2.65,4.64-3.11,7.51-1.94A46.9,46.9,0,0,1,441,125.85c2.76,3.5,1.82,7.21.75,10.93-1.78,6.21-3.64,12.4-5.47,18.61-1.71,5.8-3.55,11.57-5.12,17.41-1.92,7.13-3.85,14.27-5.31,21.49a103.88,103.88,0,0,0-1.48,14.33c-.28,4.74,3.27,8.18,8.63,5,4.93-2.89,8.27-7.27,10.87-12.06,4.66-8.58,9.16-17.29,13.05-26.23,2.34-5.4,3.44-11.34,5-17,1.86-6.71,3.5-13.48,5.53-20.14,1.93-6.34,4.4-12.51,6.3-18.85a6.06,6.06,0,0,1,6-4.68,52.67,52.67,0,0,1,24.78,4.57c3.22,1.42,3.75,3.28,2.47,6.54-3.43,8.71-7,17.36-10.21,26.16-2.48,6.85-4.6,13.84-6.58,20.86a197.44,197.44,0,0,0-5,20.54,76.75,76.75,0,0,0-.81,16.11c.21,4.9,4.32,6.75,8.66,4.38,4.84-2.64,8-7,10.8-11.48a146.51,146.51,0,0,0,13.73-27.82,78.16,78.16,0,0,0,2.8-10.72c1.4-6.66,2.55-13.37,3.92-20q1.71-8.29,3.72-16.51c1.73-7.09,3.57-14.16,5.42-21.21,1.65-6.26,3.3-12.51,5.11-18.72,1.66-5.73,3.5-11.41,5.34-17.08,1.64-5,3.39-10,5.06-15.08.75-2.26,2.11-3.72,4.61-3.89,8.94-.61,17.59.51,25.76,4.39,3.68,1.75,4,3,2.67,6.79-3.72,10.2-7.42,20.4-11,30.66q-4.35,12.55-8.35,25.25c-2.33,7.43-4.46,14.93-6.54,22.44-2.34,8.48-4.79,16.93-6.72,25.5-3.06,13.61-6.5,27.2-5.25,41.37a14.82,14.82,0,0,0,.3,2.22c1.21,4.72,4.64,6.19,8.94,3.86,5.52-3,9-8,11.76-13.23,5.25-10.05,10.13-20.3,14.75-30.65,1.66-3.71,2.28-7.91,3.14-11.94,1.77-8.36,3.2-16.8,5.11-25.12,2.1-9.13,4.51-18.2,6.94-27.25,2.58-9.6,5.19-19.2,8.07-28.72,2.28-7.53,4.93-15,7.52-22.39a4.51,4.51,0,0,1,4.11-3.16c9.21-.69,18.09.52,26.47,4.57,3.2,1.55,3.54,3,2.3,6.37Q638.7,75.4,634,88.65c-2.91,8.28-5.77,16.59-8.42,25-2.33,7.35-4.37,14.79-6.52,22.2-1.8,6.21-3.74,12.38-5.33,18.65-1.85,7.32-3.6,14.67-5,22.09-1.33,7-2.33,14.08-3.13,21.17a53.79,53.79,0,0,0,.11,10.46c.55,6.46,5,8.8,10.18,4.9a40.93,40.93,0,0,0,9.17-10,154.45,154.45,0,0,0,15.45-31.37c2.66-7.12,4.71-14.45,7.42-21.54,4.89-12.75,11.09-24.75,22.4-33.14,8.09-6,17.25-6.68,26.87-4.81A52.6,52.6,0,0,1,716,119.89c1.08.7,2,.66,2.53-.8a20.15,20.15,0,0,0,1.09-2.5c.72-3.64,3.36-4.85,6.55-5a55.28,55.28,0,0,1,24.07,4.55c3.43,1.44,4,3.31,2.63,6.84-3.43,8.71-7.08,17.34-10.22,26.15q-4.49,12.65-8.08,25.6c-2.09,7.5-3.8,15.13-5.24,22.78-.88,4.62-1.43,9.42.53,14,1.5,3.48,4.09,4.29,7.52,2.56,4.9-2.47,8-6.73,10.81-11.13,6.29-9.8,11.12-20.35,15.42-31.14.77-1.93,1.78-3.76,2.49-5.69.85-2.28,2.51-2.51,4.44-1.94a18.34,18.34,0,0,1,3.9,1.65c2.62,1.5,3.14,3,1.94,5.83-3.22,7.63-6.26,15.35-9.85,22.81-3.8,7.9-8,15.59-12.29,23.26-3.56,6.47-9.24,9.76-16.61,10.23-9.1.59-17.93-.38-26.29-4.33a14.45,14.45,0,0,1-7.82-8.92c-1.41-4.55-2-9.37-2.89-14.06C700.45,199.83,700.17,199,699.78,197.6ZM240,204.84c.46,2.9.69,4.88,1.11,6.82.78,3.55,3.8,4.7,6.49,2.27a36.73,36.73,0,0,0,5.92-6.66c8.91-13.21,14.66-28,20.78-42.58,3.68-8.78,6.79-17.8,10.28-26.66,2.37-6,2.42-6.05-3.33-9.46-4.94-2.92-8.87-2.41-12.74,1.66-.57.6-1.11,1.24-1.63,1.89-6.72,8.39-11.2,18-14.84,28-3,8.24-5.76,16.6-8.07,25.06C242.18,191.88,241.22,198.81,240,204.84Zm427,.56.47.2c.34,2.12.58,4.27,1.06,6.37.74,3.2,3.79,4.3,6.29,2.09a34.71,34.71,0,0,0,5.83-6.41c9-13.36,14.85-28.28,21-43,3.67-8.78,6.81-17.78,10.28-26.65,2.34-6,2.38-6-3.41-9.43-4.74-2.81-8.61-2.39-12.4,1.37a22.49,22.49,0,0,0-1.66,1.86,79.94,79.94,0,0,0-12.3,21.52c-3.45,8.69-6.78,17.47-9.4,26.44C670.36,188.13,668.91,196.83,667,205.4Z"/><path class="cls-1" d="M143.76,203.75a31.12,31.12,0,0,0,2.91-3.4,377.74,377.74,0,0,0,26.18-47.14c6-13.18,12-26.39,17.29-39.88A331.45,331.45,0,0,0,200.4,81.4c3.75-13.48,6.16-27.22,5.52-41.33C205.46,30,203,20.83,194,14.6c2.28-5.13,6.43-8.31,10.92-11A24.72,24.72,0,0,1,219.23,0,16.71,16.71,0,0,1,234,10.83a45.83,45.83,0,0,1,2.14,24.79c-1.55,9.15-3.22,18.33-5.62,27.28a229.49,229.49,0,0,1-8.28,24.21c-4.45,11.42-9,22.82-14.12,33.94-5.34,11.59-11.15,23-17.19,34.22q-9.6,17.83-20.07,35.2A339.92,339.92,0,0,1,141,232.75c-5.52,6.59-11.79,7.88-19.31,5.68-7.18-2.09-13.67-5.58-18.75-11.27-.27-.31-.51-.64-.85-1.08,6.56-5.17,7.72-12.77,9-20.17,5-28.85,4.85-58,4-87.1-.42-14.2-1.61-28.39-2.79-42.57a78.5,78.5,0,0,0-2.94-15.89C107.58,54.41,104.74,52,98.27,52c-9.52,0-17.83,3.5-25.49,8.81a147.5,147.5,0,0,0-44.57,48.63c-4,7-7.19,14.23-7.55,22.42a29.84,29.84,0,0,0,0,3c.17,3.34-.13,3.73-3.37,3-5.52-1.22-10.78-3-14.11-8.07C-.49,124.23-.61,118.15.94,112,5.31,94.56,15.63,80.65,27.67,67.82A128.66,128.66,0,0,1,59.06,43.13a74.13,74.13,0,0,1,27.68-9.32c4.86-.56,9.44.76,13.8,2.72,10.38,4.66,19,11.68,26.72,20,6.57,7.05,9.39,15.55,10.36,24.78,1.68,16,3.7,31.91,4.46,47.92,1,21.76,1,43.57,1.4,65.37.05,2.88-.33,5.78-.5,8.67Z"/><path class="cls-1" d="M830.06,226.42c7.73.49,13.49-3.75,19.08-8.27,12-9.69,21.49-21.71,31.16-33.56,1.47-1.8,2.94-3.6,4.33-5.46.8-1.07.86-2.31-.82-2.22-5.68.28-8.36-3.65-10.65-7.71a60,60,0,0,1-4.07-10.09c-.76-2.21.07-2.72,2.36-2.51,8.77.77,17.54,1.38,26.32,2,1.92.14,3.24-.87,4.32-2.43,8.69-12.45,17.56-24.78,26.09-37.34s16.64-25,24.75-37.64c7.43-11.58,14.6-23.33,21.87-35,2.23-3.6,4.5-7.17,6.56-10.86a8.81,8.81,0,0,1,6.76-4.53c9.15-1.39,22.9,3.36,27.75,12.5,2.48,4.66,1.45,8.91.13,13.4-1.88,6.36-3.66,12.75-5.5,19.12-1.75,6-3.54,12.09-5.27,18.15s-3.42,12.12-5.13,18.19c-1.8,6.38-3.62,12.76-5.39,19.15-1.72,6.23-3.4,12.48-5.09,18.72-1.8,6.64-3.61,13.28-5.38,19.93-1.25,4.73-2.45,9.48-3.64,14.22q-1.86,7.36-3.65,14.73c-1.32,5.48-2.68,11-3.86,16.47-1.33,6.17-2.47,12.37-3.7,18.56-.12.57-.3,1.13-.41,1.7-1,5-1,5-6.19,4.66-7.86-.48-14.71-5.63-16.56-13.2a62.06,62.06,0,0,1-1.89-14.21c-.07-9.85,2-19.46,4.54-29,1.1-4.09,2.12-8.19,3.12-12.3.51-2.07-.12-2.68-2.32-2.44-11.33,1.25-22.65,2.53-34,3.71a7.48,7.48,0,0,0-5.75,3.33c-9.87,13.55-19.67,27.16-29.94,40.41-6.2,8-13.17,15.45-21.65,21.22a38.41,38.41,0,0,1-8,3.92c-3.68,1.4-7.22.6-10.44-1.56-4.43-3-8.11-6.59-9.93-11.76a4.46,4.46,0,0,1-.27-1.19A2.68,2.68,0,0,1,830.06,226.42ZM980.76,66.51l-.87-.27c-.76,1.24-1.54,2.48-2.29,3.73-8.14,13.57-16.09,27.26-24.48,40.67-9.18,14.69-18.79,29.11-28.17,43.67A11.13,11.13,0,0,0,924,157a11.09,11.09,0,0,0,2.55.51c8.9-.32,17.79-.74,26.69-1a3.06,3.06,0,0,0,3.14-2.61c1.09-4,2.13-8,3.2-12,2.18-8.16,4.3-16.34,6.58-24.48,2.21-7.89,4.56-15.74,6.91-23.6,2.39-8,4.87-16,7.26-24A19,19,0,0,0,980.76,66.51Z"/><path class="cls-1" d="M1045.64,141.78c4.85-7.49,9.47-14.65,14.12-21.79,5.07-7.78,12.55-9.69,21.14-8.25a38.4,38.4,0,0,1,20.45,10.17c4.62,4.36,5.91,10.1,6.39,16.05.78,9.6-.32,19.06-2.28,28.49a132.85,132.85,0,0,1-11,31.85c-4.14,8.41-9.41,16.08-16.88,21.93-8.42,6.6-18.14,7.13-28.23,5.6a55.12,55.12,0,0,1-21.37-7.8c-1.31-.83-2.11-.38-2.43,1.22-2,10.18-4.21,20.32-6.1,30.52-1.94,10.46-3.64,21-5.36,31.45-.42,2.54-.46,5.13-.72,7.7-.43,4.31-2.62,6.06-6.76,5-8.17-2.13-14.34-8.27-15-17.13a85.27,85.27,0,0,1,.1-14.47c1.07-11.5,2.4-23,3.82-34.44,1-8.08,2.19-16.14,3.5-24.18,1.16-7,2.6-14,3.9-21.06,1.17-6.28,2.19-12.6,3.52-18.85,1.67-7.87,3.51-15.71,5.42-23.52,1.54-6.28,3.24-12.53,5-18.75a34.08,34.08,0,0,1,2.77-7.42,5.69,5.69,0,0,1,3.78-2.63,49.73,49.73,0,0,1,26.48,4.47c3,1.41,3.4,3.41,2.13,6.59-2.3,5.77-4.36,11.63-6.47,17.47A5.1,5.1,0,0,0,1045.64,141.78Zm33.2-8.31c0-1,.07-2.22,0-3.45a30.61,30.61,0,0,0-.49-3.71c-.64-3.32-3.5-4.52-6.14-2.37a37.54,37.54,0,0,0-6.14,6.14c-10,13.24-16.9,28.28-23.92,43.2-4.06,8.61-7.63,17.45-11.52,26.14-2.44,5.44-2.38,5.89,2.68,9,6.62,4,12.39,3.82,17.27-1.16a63.75,63.75,0,0,0,8.21-10.25c6.35-9.92,10.21-20.95,13.83-32.08C1075.89,154.75,1078.33,144.44,1078.84,133.47Z"/><path class="cls-1" d="M1159.61,142c4.53-7.17,8.73-14,13.14-20.71,2.77-4.21,6.06-8.13,11.38-9.06a34.12,34.12,0,0,1,10.12-.48,37.12,37.12,0,0,1,21.33,10.47c4.62,4.48,5.72,10.37,6.17,16.4.7,9.45-.47,18.73-2.37,28a130.92,130.92,0,0,1-11.07,31.85c-4.06,8.23-9.26,15.74-16.53,21.58-8.38,6.72-18.07,7.35-28.16,5.88a54.26,54.26,0,0,1-21.62-7.81c-1.45-.92-2.23-.4-2.56,1.3-2.52,13.05-5.3,26-7.61,39.12-1.81,10.22-3.1,20.53-4.56,30.81-.57,4-2.83,5.67-6.88,4.56-8.33-2.28-14.49-8.71-15-17.75a91.75,91.75,0,0,1,.15-13.47c1.1-11.58,2.4-23.15,3.82-34.7,1-8.08,2.2-16.13,3.51-24.17,1.15-7,2.58-14,3.88-21.06,1.16-6.2,2.23-12.42,3.49-18.6,1.2-5.86,2.56-11.68,3.91-17.5,1.14-4.92,2.22-9.87,3.6-14.74,1.67-5.89,3.59-11.71,5.47-17.54.67-2.07,2.3-2.92,4.42-3a52.22,52.22,0,0,1,25.77,4.47c3.31,1.55,3.77,3.43,2.39,6.86-2.29,5.68-4.3,11.48-6.37,17.25A6.27,6.27,0,0,0,1159.61,142Zm33.23-7.91c0-1.24.07-2.49,0-3.73a35,35,0,0,0-.52-4c-.63-3.36-3.47-4.61-6.1-2.48a36.71,36.71,0,0,0-6.15,6.12c-9.37,12.28-15.91,26.18-22.45,40-4.6,9.74-8.73,19.68-13.11,29.52-2.38,5.36-2.37,5.78,2.72,8.74,7.08,4.11,12.7,4.39,18.44-2.32,3.74-4.38,7.45-9,9.92-14.18a282.55,282.55,0,0,0,10.89-26.89A108.27,108.27,0,0,0,1192.84,134.06Z"/><path class="cls-1" d="M484,89.13c.23-5.44,2.26-10.29,4.11-15.17.62-1.63,1.57-3.15,2-4.81.78-2.91,3.11-3.92,5.54-4.29a31.21,31.21,0,0,1,23.78,5.9,15.81,15.81,0,0,1,2.88,3.06,3.44,3.44,0,0,1,.08,4.59c-3.83,4.9-7.87,9.66-11.52,14.69a136.41,136.41,0,0,0-7.68,12.14c-1,1.68-1.79,2.19-3.68,1.55-6.17-2.07-11.72-4.9-14.23-11.39A38.1,38.1,0,0,1,484,89.13Z"/></g></svg>