<?xml version="1.0" encoding="utf-8"?>
<!-- Generator: Adobe Illustrator 25.2.0, SVG Export Plug-In . SVG Version: 6.00 Build 0)  -->
<svg version="1.1" id="Layer_1" xmlns="http://www.w3.org/2000/svg" xmlns:xlink="http://www.w3.org/1999/xlink" x="0px" y="0px"
	 viewBox="0 0 1222 294.2" style="enable-background:new 0 0 1222 294.2;" xml:space="preserve">
<style type="text/css">
	.st0{fill:#FFFFFF;}
</style>
<g id="ikpsos_1_">
	<g>
		<path class="st0" d="M699.8,197.6c-2.1,3.9-3.7,7.2-5.6,10.4c-2.1,3.5-4.2,7-6.7,10.2c-3.7,4.9-9,7.3-14.9,8.2
			c-8,1.2-15.6-0.2-22.5-4.6c-5-3.2-6.6-8.3-8.1-13.5c-0.2-0.6-0.1-1.4-0.4-2c-0.4-0.8-1-1.4-1.5-2.1c-0.5,0.6-1.1,1-1.5,1.7
			c-3,4.8-5.9,9.6-8.9,14.3c-3.4,5.2-8.6,7.2-14.4,7.7c-9.3,0.8-18.3-0.2-26.8-4.2c-4.2-2-6.8-5.2-8-9.6c-0.7-2.5-1.1-5.2-1.6-7.8
			c-0.1-0.5-0.4-1-0.7-1.9c-2.5,4.1-4.5,8.1-7.1,11.7c-2.5,3.4-5.4,6.7-8.8,9.3c-2.1,1.6-5.2,2.1-8,2.3c-9.5,1-18.8-0.1-27.5-4.2
			c-4.1-1.9-6.6-5.2-7.8-9.5c-0.7-2.5-1.3-5.1-2.1-8.2c-2.1,3.5-3.7,6.5-5.6,9.3c-2.6,4-4.9,8.3-9.4,10.4c-2.4,1.1-5,1.9-7.6,2.2
			c-9.7,1.1-19.2,0.1-28-4.3c-5-2.5-7.5-7.1-8.8-12.4c-0.2-0.6-0.1-1.4-0.4-2c-0.3-0.7-0.9-1.2-1.4-1.8c-0.5,0.5-1.1,0.9-1.5,1.4
			c-2.1,3.3-4.1,6.6-6.2,9.9c-3.8,5.9-9.4,8.7-16.3,9.2c-9,0.7-17.7-0.4-25.8-4.4c-4.4-2.2-7-6.1-8.3-10.7
			c-2.7-9.8-2.1-19.8-0.5-29.7c1.1-6.9,2.1-13.8,3.5-20.6c1-5.2,2.6-10.3,3.8-15.5c0.3-1.1,0.3-2.3,0.5-3.5
			c-0.3-0.1-0.5-0.2-0.8-0.3c-2.2,2.8-4.6,5.5-6.5,8.5c-7.5,11.5-15.2,23-22.1,34.9c-5.5,9.4-9.9,19.5-12.8,30.1
			c-0.7,2.6-1.4,5.2-2.6,7.5c-0.6,1.1-2.1,2.3-3.3,2.5c-8.4,1.4-18.9-6.8-19.4-14.9c-0.1-1.9-0.5-3.8-0.8-5.7
			c-0.1-0.8-0.6-1.5-1-2.5c-3,5-5.8,9.5-8.5,14.2c-3.8,6.4-9.4,9.9-16.9,10.3c-8.8,0.5-17.4-0.4-25.6-4.1c-4.3-2-7.2-5.2-8.5-9.5
			c-1.3-4.4-1.9-9-2.8-13.6c-0.2-0.8-0.4-1.7-0.8-3.2c-2.1,3.9-3.7,7.2-5.6,10.4c-2.1,3.5-4.2,7-6.6,10.2c-3.7,4.9-9,7.3-14.9,8.2
			c-8.1,1.2-15.7-0.2-22.7-4.7c-5-3.2-6.5-8.4-8-13.6c-2.3-8.4-2.2-17-1.4-25.5c0.7-7.2,2.4-14.4,4-21.5c1.9-8.5,5.3-16.4,9.4-24
			c4.2-7.8,9.3-15,16.6-20.2c8.1-5.8,17.2-6.5,26.7-4.6c6.8,1.3,13,3.9,18.8,7.7c1.1,0.7,2,0.7,2.5-0.8c0.3-0.9,0.9-1.6,1.1-2.5
			c0.7-3.6,3.4-4.8,6.6-5c8.4-0.4,16.4,1.3,24.1,4.5c3.4,1.4,4,3.3,2.6,6.8c-3.4,8.7-7.1,17.3-10.2,26.2c-3,8.4-5.7,17-8.1,25.6
			c-2.1,7.5-3.8,15.1-5.2,22.8c-0.9,4.6-1.4,9.4,0.5,14c1.5,3.5,4.1,4.3,7.5,2.6c4.9-2.5,8-6.7,10.8-11.1
			c6.7-10.3,11.6-21.6,16.2-33c1.6-4,2.2-8.4,3.3-12.7c2.4-9,4.7-17.9,7.2-26.9c1-3.8,2.1-7.7,3.5-11.4c0.5-1.3,1.9-2.9,3.1-3.3
			c2.6-0.8,5.4-1.2,8.1-1.1c6.9,0.2,13.8,1,20.1,4.1c2.9,1.4,3.1,2.7,2,5.6c-4.3,10.9-8.7,21.9-12.8,32.9c-2,5.5-3.5,11.2-5.2,16.9
			c-0.3,1-0.3,2.2-0.4,3.2c0.2,0.1,0.5,0.1,0.7,0.2c1.6-2.7,3.1-5.5,4.9-8.1c8.1-11.8,16.1-23.8,24.6-35.3
			c5.4-7.3,11.7-13.8,17.5-20.8c2.2-2.7,4.6-3.1,7.5-1.9c7.7,3.2,14.4,7.8,19.6,14.4c2.8,3.5,1.8,7.2,0.8,10.9
			c-1.8,6.2-3.6,12.4-5.5,18.6c-1.7,5.8-3.6,11.6-5.1,17.4c-1.9,7.1-3.8,14.3-5.3,21.5c-0.9,4.7-1.2,9.5-1.5,14.3
			c-0.3,4.7,3.3,8.2,8.6,5c4.9-2.9,8.3-7.3,10.9-12.1c4.7-8.6,9.2-17.3,13-26.2c2.3-5.4,3.4-11.3,5-17c1.9-6.7,3.5-13.5,5.5-20.1
			c1.9-6.3,4.4-12.5,6.3-18.9c1-3.2,3.1-4.5,6-4.7c8.6-0.5,16.9,1.1,24.8,4.6c3.2,1.4,3.7,3.3,2.5,6.5c-3.4,8.7-7,17.4-10.2,26.2
			c-2.5,6.9-4.6,13.8-6.6,20.9c-1.9,6.8-3.8,13.6-5,20.5c-0.9,5.3-1,10.7-0.8,16.1c0.2,4.9,4.3,6.8,8.7,4.4c4.8-2.6,8-7,10.8-11.5
			c5.5-8.8,10.2-18,13.7-27.8c1.2-3.5,2-7.1,2.8-10.7c1.4-6.7,2.5-13.4,3.9-20c1.1-5.5,2.4-11,3.7-16.5c1.7-7.1,3.6-14.2,5.4-21.2
			c1.6-6.3,3.3-12.5,5.1-18.7c1.7-5.7,3.5-11.4,5.3-17.1c1.6-5,3.4-10,5.1-15.1c0.7-2.3,2.1-3.7,4.6-3.9c8.9-0.6,17.6,0.5,25.8,4.4
			c3.7,1.8,4.1,3,2.7,6.8c-3.7,10.2-7.4,20.4-11,30.7c-2.9,8.4-5.7,16.8-8.4,25.3c-2.3,7.4-4.5,14.9-6.5,22.4
			c-2.3,8.5-4.8,16.9-6.7,25.5c-3.1,13.6-6.5,27.2-5.3,41.4c0.1,0.7,0.1,1.5,0.3,2.2c1.2,4.7,4.6,6.2,8.9,3.9c5.5-3,9-8,11.8-13.2
			c5.2-10,10.1-20.3,14.8-30.7c1.7-3.7,2.3-7.9,3.1-11.9c1.8-8.4,3.2-16.8,5.1-25.1c2.1-9.1,4.5-18.2,6.9-27.2
			c2.6-9.6,5.2-19.2,8.1-28.7c2.3-7.5,4.9-15,7.5-22.4c0.6-1.8,2-3,4.1-3.2c9.2-0.7,18.1,0.5,26.5,4.6c3.2,1.5,3.5,3,2.3,6.4
			c-3.3,8.8-6.5,17.6-9.6,26.4c-2.9,8.3-5.8,16.6-8.4,25c-2.3,7.3-4.4,14.8-6.5,22.2c-1.8,6.2-3.7,12.4-5.3,18.7
			c-1.9,7.3-3.6,14.7-5,22.1c-1.3,7-2.3,14.1-3.1,21.2c-0.4,3.4-0.2,7,0.1,10.5c0.5,6.5,5,8.8,10.2,4.9c3.6-2.7,6.7-6.3,9.2-10
			c6.5-9.8,11.4-20.4,15.5-31.4c2.7-7.1,4.7-14.4,7.4-21.5c4.9-12.8,11.1-24.8,22.4-33.1c8.1-6,17.2-6.7,26.9-4.8
			c6.8,1.3,13,3.9,18.8,7.7c1.1,0.7,2,0.7,2.5-0.8c0.3-0.9,0.9-1.6,1.1-2.5c0.7-3.6,3.4-4.8,6.6-5c8.4-0.4,16.4,1.3,24.1,4.5
			c3.4,1.4,4,3.3,2.6,6.8c-3.4,8.7-7.1,17.3-10.2,26.2c-3,8.4-5.7,17-8.1,25.6c-2.1,7.5-3.8,15.1-5.2,22.8c-0.9,4.6-1.4,9.4,0.5,14
			c1.5,3.5,4.1,4.3,7.5,2.6c4.9-2.5,8-6.7,10.8-11.1c6.3-9.8,11.1-20.3,15.4-31.1c0.8-1.9,1.8-3.8,2.5-5.7c0.8-2.3,2.5-2.5,4.4-1.9
			c1.3,0.4,2.7,1,3.9,1.7c2.6,1.5,3.1,3,1.9,5.8c-3.2,7.6-6.3,15.3-9.9,22.8c-3.8,7.9-8.1,15.6-12.3,23.3
			c-3.6,6.5-9.2,9.8-16.6,10.2c-9.1,0.6-17.9-0.4-26.3-4.3c-3.9-1.8-6.6-5-7.8-8.9c-1.4-4.6-1.9-9.4-2.9-14.1
			C700.4,199.8,700.2,199,699.8,197.6z M240,204.8c0.5,2.9,0.7,4.9,1.1,6.8c0.8,3.6,3.8,4.7,6.5,2.3c2.2-2,4.3-4.2,5.9-6.7
			c8.9-13.2,14.7-28,20.8-42.6c3.7-8.8,6.8-17.8,10.3-26.7c2.4-6,2.4-6.1-3.3-9.5c-4.9-2.9-8.9-2.4-12.7,1.7
			c-0.6,0.6-1.1,1.2-1.6,1.9c-6.7,8.4-11.2,18-14.8,28c-3,8.2-5.8,16.6-8.1,25.1C242.2,191.9,241.2,198.8,240,204.8z M667,205.4
			c0.2,0.1,0.3,0.1,0.5,0.2c0.3,2.1,0.6,4.3,1.1,6.4c0.7,3.2,3.8,4.3,6.3,2.1c2.2-1.9,4.2-4,5.8-6.4c9-13.4,14.8-28.3,21-43
			c3.7-8.8,6.8-17.8,10.3-26.7c2.3-6,2.4-6-3.4-9.4c-4.7-2.8-8.6-2.4-12.4,1.4c-0.6,0.6-1.1,1.2-1.7,1.9
			c-5.3,6.5-9.2,13.8-12.3,21.5c-3.4,8.7-6.8,17.5-9.4,26.4C670.4,188.1,668.9,196.8,667,205.4z"/>
		<path class="st0" d="M143.8,203.7c1-1.1,2.1-2.2,2.9-3.4c9.7-15.2,18.7-30.7,26.2-47.1c6-13.2,12-26.4,17.3-39.9
			c4.1-10.4,7.3-21.2,10.3-31.9c3.7-13.5,6.2-27.2,5.5-41.3C205.5,30,203,20.8,194,14.6c2.3-5.1,6.4-8.3,10.9-11
			c4.3-2.6,9.1-3.9,14.3-3.6c6.7,0.4,12.3,4.5,14.8,10.8c3.2,8.1,3.6,16.4,2.1,24.8c-1.6,9.2-3.2,18.3-5.6,27.3
			c-2.2,8.2-5.2,16.3-8.3,24.2c-4.5,11.4-9,22.8-14.1,33.9c-5.3,11.6-11.1,23-17.2,34.2c-6.4,11.9-13.1,23.7-20.1,35.2
			c-8.9,14.8-18.7,29-29.8,42.3c-5.5,6.6-11.8,7.9-19.3,5.7c-7.2-2.1-13.7-5.6-18.7-11.3c-0.3-0.3-0.5-0.6-0.9-1.1
			c6.6-5.2,7.7-12.8,9-20.2c5-28.9,4.8-58,4-87.1c-0.4-14.2-1.6-28.4-2.8-42.6c-0.4-5.4-1.4-10.8-2.9-15.9
			c-1.8-5.9-4.6-8.4-11.1-8.4c-9.5,0-17.8,3.5-25.5,8.8c-18.5,12.9-33.4,29.1-44.6,48.6c-4,7-7.2,14.2-7.6,22.4c0,1-0.1,2,0,3
			c0.2,3.3-0.1,3.7-3.4,3c-5.5-1.2-10.8-3-14.1-8.1c-3.7-5.5-3.8-11.6-2.2-17.8c4.4-17.4,14.7-31.4,26.7-44.2
			c9.2-9.8,19.6-18.2,31.4-24.7c8.6-4.8,17.8-8.2,27.7-9.3c4.9-0.6,9.4,0.8,13.8,2.7c10.4,4.7,19,11.7,26.7,20
			c6.6,7.1,9.4,15.6,10.4,24.8c1.7,16,3.7,31.9,4.5,47.9c1,21.8,1,43.6,1.4,65.4c0,2.9-0.3,5.8-0.5,8.7
			C143.2,203.4,143.5,203.6,143.8,203.7z"/>
		<path class="st0" d="M830.1,226.4c7.7,0.5,13.5-3.8,19.1-8.3c12-9.7,21.5-21.7,31.2-33.6c1.5-1.8,2.9-3.6,4.3-5.5
			c0.8-1.1,0.9-2.3-0.8-2.2c-5.7,0.3-8.4-3.7-10.6-7.7c-1.8-3.1-2.9-6.7-4.1-10.1c-0.8-2.2,0.1-2.7,2.4-2.5c8.8,0.8,17.5,1.4,26.3,2
			c1.9,0.1,3.2-0.9,4.3-2.4c8.7-12.5,17.6-24.8,26.1-37.3c8.4-12.4,16.6-25,24.8-37.6c7.4-11.6,14.6-23.3,21.9-35
			c2.2-3.6,4.5-7.2,6.6-10.9c1.5-2.7,3.9-4.1,6.8-4.5c9.1-1.4,22.9,3.4,27.7,12.5c2.5,4.7,1.4,8.9,0.1,13.4
			c-1.9,6.4-3.7,12.7-5.5,19.1c-1.7,6.1-3.5,12.1-5.3,18.2c-1.7,6.1-3.4,12.1-5.1,18.2c-1.8,6.4-3.6,12.8-5.4,19.2
			c-1.7,6.2-3.4,12.5-5.1,18.7c-1.8,6.6-3.6,13.3-5.4,19.9c-1.3,4.7-2.4,9.5-3.6,14.2c-1.2,4.9-2.5,9.8-3.6,14.7
			c-1.3,5.5-2.7,11-3.9,16.5c-1.3,6.2-2.5,12.4-3.7,18.6c-0.1,0.6-0.3,1.1-0.4,1.7c-1,5-1,5-6.2,4.7c-7.9-0.5-14.7-5.6-16.6-13.2
			c-1.1-4.6-1.9-9.5-1.9-14.2c-0.1-9.9,2-19.5,4.5-29c1.1-4.1,2.1-8.2,3.1-12.3c0.5-2.1-0.1-2.7-2.3-2.4c-11.3,1.2-22.7,2.5-34,3.7
			c-2.5,0.3-4.2,1.2-5.8,3.3c-9.9,13.5-19.7,27.2-29.9,40.4c-6.2,8-13.2,15.5-21.6,21.2c-2.4,1.6-5.2,2.9-8,3.9
			c-3.7,1.4-7.2,0.6-10.4-1.6c-4.4-3-8.1-6.6-9.9-11.8c-0.1-0.4-0.2-0.8-0.3-1.2C829.7,227,829.9,226.8,830.1,226.4z M980.8,66.5
			c-0.3-0.1-0.6-0.2-0.9-0.3c-0.8,1.2-1.5,2.5-2.3,3.7c-8.1,13.6-16.1,27.3-24.5,40.7c-9.2,14.7-18.8,29.1-28.2,43.7
			c-0.5,0.8-0.6,1.8-0.9,2.7c0.9,0.2,1.7,0.5,2.6,0.5c8.9-0.3,17.8-0.7,26.7-1c1.9-0.1,2.7-1,3.1-2.6c1.1-4,2.1-8,3.2-12
			c2.2-8.2,4.3-16.3,6.6-24.5c2.2-7.9,4.6-15.7,6.9-23.6c2.4-8,4.9-16,7.3-24C980.7,68.7,980.6,67.6,980.8,66.5z"/>
		<path class="st0" d="M1045.6,141.8c4.9-7.5,9.5-14.6,14.1-21.8c5.1-7.8,12.5-9.7,21.1-8.3c7.8,1.3,14.7,4.7,20.4,10.2
			c4.6,4.4,5.9,10.1,6.4,16c0.8,9.6-0.3,19.1-2.3,28.5c-2.3,11.1-6.1,21.7-11,31.9c-4.1,8.4-9.4,16.1-16.9,21.9
			c-8.4,6.6-18.1,7.1-28.2,5.6c-7.7-1.2-14.8-3.7-21.4-7.8c-1.3-0.8-2.1-0.4-2.4,1.2c-2,10.2-4.2,20.3-6.1,30.5
			c-1.9,10.5-3.6,21-5.4,31.4c-0.4,2.5-0.5,5.1-0.7,7.7c-0.4,4.3-2.6,6.1-6.8,5c-8.2-2.1-14.3-8.3-15-17.1
			c-0.4-4.8-0.3-9.7,0.1-14.5c1.1-11.5,2.4-23,3.8-34.4c1-8.1,2.2-16.1,3.5-24.2c1.2-7,2.6-14,3.9-21.1c1.2-6.3,2.2-12.6,3.5-18.9
			c1.7-7.9,3.5-15.7,5.4-23.5c1.5-6.3,3.2-12.5,5-18.7c0.7-2.5,1.5-5.1,2.8-7.4c0.7-1.2,2.4-2.5,3.8-2.6c9.2-0.9,18.1,0.5,26.5,4.5
			c3,1.4,3.4,3.4,2.1,6.6c-2.3,5.8-4.4,11.6-6.5,17.5C1045.3,140.4,1045.6,141,1045.6,141.8z M1078.8,133.5c0-1,0.1-2.2,0-3.5
			c-0.1-1.2-0.3-2.5-0.5-3.7c-0.6-3.3-3.5-4.5-6.1-2.4c-2.2,1.8-4.4,3.9-6.1,6.1c-10,13.2-16.9,28.3-23.9,43.2
			c-4.1,8.6-7.6,17.4-11.5,26.1c-2.4,5.4-2.4,5.9,2.7,9c6.6,4,12.4,3.8,17.3-1.2c3.1-3.1,5.9-6.6,8.2-10.3
			c6.3-9.9,10.2-21,13.8-32.1C1075.9,154.8,1078.3,144.4,1078.8,133.5z"/>
		<path class="st0" d="M1159.6,142c4.5-7.2,8.7-14,13.1-20.7c2.8-4.2,6.1-8.1,11.4-9.1c3.3-0.6,6.8-0.9,10.1-0.5
			c8.2,1.1,15.4,4.7,21.3,10.5c4.6,4.5,5.7,10.4,6.2,16.4c0.7,9.4-0.5,18.7-2.4,28c-2.3,11.1-6.1,21.7-11.1,31.8
			c-4.1,8.2-9.3,15.7-16.5,21.6c-8.4,6.7-18.1,7.4-28.2,5.9c-7.7-1.1-15-3.6-21.6-7.8c-1.4-0.9-2.2-0.4-2.6,1.3
			c-2.5,13-5.3,26-7.6,39.1c-1.8,10.2-3.1,20.5-4.6,30.8c-0.6,4-2.8,5.7-6.9,4.6c-8.3-2.3-14.5-8.7-15-17.8c-0.2-4.5-0.3-9,0.1-13.5
			c1.1-11.6,2.4-23.1,3.8-34.7c1-8.1,2.2-16.1,3.5-24.2c1.2-7,2.6-14,3.9-21.1c1.2-6.2,2.2-12.4,3.5-18.6c1.2-5.9,2.6-11.7,3.9-17.5
			c1.1-4.9,2.2-9.9,3.6-14.7c1.7-5.9,3.6-11.7,5.5-17.5c0.7-2.1,2.3-2.9,4.4-3c9-0.6,17.6,0.6,25.8,4.5c3.3,1.5,3.8,3.4,2.4,6.9
			c-2.3,5.7-4.3,11.5-6.4,17.2C1159.3,140.4,1159.5,141,1159.6,142z M1192.8,134.1c0-1.2,0.1-2.5,0-3.7c-0.1-1.3-0.3-2.7-0.5-4
			c-0.6-3.4-3.5-4.6-6.1-2.5c-2.2,1.8-4.4,3.8-6.2,6.1c-9.4,12.3-15.9,26.2-22.4,40c-4.6,9.7-8.7,19.7-13.1,29.5
			c-2.4,5.4-2.4,5.8,2.7,8.7c7.1,4.1,12.7,4.4,18.4-2.3c3.7-4.4,7.5-9,9.9-14.2c4.2-8.7,7.6-17.8,10.9-26.9
			C1190,155,1192.3,144.7,1192.8,134.1z"/>
		<path class="st0" d="M484,89.1c0.2-5.4,2.3-10.3,4.1-15.2c0.6-1.6,1.6-3.1,2-4.8c0.8-2.9,3.1-3.9,5.5-4.3
			c8.7-1.3,16.7,0.7,23.8,5.9c1.1,0.8,2,2,2.9,3.1c1.2,1.5,1.2,3.1,0.1,4.6c-3.8,4.9-7.9,9.7-11.5,14.7c-2.8,3.9-5.3,8-7.7,12.1
			c-1,1.7-1.8,2.2-3.7,1.6c-6.2-2.1-11.7-4.9-14.2-11.4C484.6,93.4,484.4,91.2,484,89.1z"/>
	</g>
</g>
</svg>
